<?xml version="1.0" encoding="utf-8"?>
<!-- Generator: Adobe Illustrator 25.4.1, SVG Export Plug-In . SVG Version: 6.00 Build 0)  -->
<svg version="1.1" id="Capa_1" xmlns:svgjs="http://svgjs.com/svgjs"
	 xmlns="http://www.w3.org/2000/svg" xmlns:xlink="http://www.w3.org/1999/xlink" x="0px" y="0px" viewBox="0 0 512 512"
	 style="enable-background:new 0 0 512 512;" xml:space="preserve">
<style type="text/css">
	.st0{fill:#B50218;}
</style>
<g>
	<path class="st0" d="M371,169c-4.7-14.6-17.1-24.2-34.6-27c4.8-8.7,8.1-22,3.8-36.9c-7.2-25-31.1-25.3-44.1-25.4
		c5.5-10.6,10.9-27.3,7.1-43.9C300.5,24.4,292,9.5,266.6,3.1c-15.2-3.8-31.2-3.2-39.4-2.6c-4,0.3-7.3,3.4-7.7,7.4
		c-0.5,4,1.9,7.7,5.8,8.9c5.9,1.9,13.4,6,15.3,14.4c2.4,10.3-1,24.9-49.2,46c-16.3,7.2-26.3,17.3-29.7,30c-4,15,2.3,29.8,8.5,39.9
		c-5.1,1.4-11,3.9-16.3,7.6c-10.4,7.3-15.9,17.5-16,29.6c-0.1,15,4.9,25,10.8,31.6c-0.9,1.8-1.5,3.9-1.5,6.1v9.7
		c0,17.8,12.1,32.8,28.5,37.3l10.7,39.8c0,0,0,0,0,0L221.3,439c0,0,0,0,0,0l15.8,58.7c2.3,8.5,9.7,14.2,18.5,14.2
		c8.8,0,16.3-5.7,18.5-14.2l61.4-228.9c16.4-4.5,28.5-19.5,28.5-37.3v-9.7c0-2.1-0.5-4.1-1.4-5.9C371.2,207.4,378.6,192.6,371,169z
		 M259.6,493.9c-0.8,2.8-3.1,3.1-4,3.1s-3.3-0.3-4-3.1l-11.7-43.7c9.4,3.9,18.9,7.7,28.5,11.1L259.6,493.9z M284.9,399.7
		c-2.2-0.8-4.4-1.7-6.6-2.5c-3.9-1.5-8.2,0.4-9.7,4.3s0.4,8.2,4.3,9.7c2.7,1,5.4,2,8.1,3l-8.7,32.6c-12.7-4.6-25.2-9.6-37.4-15.1
		l-11.4-42.6c5.4,2.8,10.9,5.4,16.3,8c1,0.5,2.1,0.7,3.2,0.7c2.8,0,5.5-1.6,6.8-4.3c1.8-3.8,0.1-8.2-3.6-10
		c-9.4-4.4-18.8-9.2-28-14.1L206,324c27.3,17.3,56.6,31.9,87.5,43.5L284.9,399.7z M297.4,352.9c-34.8-13.1-67.4-30.2-97.3-50.8
		l-8.5-31.9h19.1c28.9,20.8,60.8,37.9,95.2,51L297.4,352.9z M309.8,306.7c-25.6-9.9-49.9-22.1-72.4-36.5h82.2L309.8,306.7z
		 M348.2,208.7H221.8c-4.1,0-7.5,3.4-7.5,7.5s3.4,7.5,7.5,7.5H349v7.9c0,12-8.9,21.9-20.5,23.4c0,0,0,0,0,0
		c-0.5,0.1-1.1,0.1-1.6,0.2c0,0,0,0-0.1,0c-0.5,0-1,0.1-1.5,0.1H185.8c-0.5,0-1,0-1.5-0.1c0,0,0,0-0.1,0c-0.5,0-1-0.1-1.6-0.2
		c0,0,0,0,0,0c-11.5-1.5-20.5-11.4-20.5-23.4v-7.9h24.4c4.1,0,7.5-3.4,7.5-7.5s-3.4-7.5-7.5-7.5h-23.7c-6.7-5.3-10.1-13.5-10-24.3
		c0.1-17.1,19.4-23,26.2-23.8c0.3,0,0.6-0.1,0.9-0.2c3,3.7,6.5,7.7,9.1,10.2c1.4,1.4,3.3,2,5.1,2c2,0,4-0.8,5.5-2.4
		c2.8-3,2.7-7.8-0.3-10.6c-4.1-3.8-11.7-13.6-14.4-17.2c-4.6-6.6-12-19.7-8.9-31.4c2.1-8.1,9.3-14.9,21.2-20.1
		c30.6-13.4,64.9-32.8,57.8-63.2c-1.2-5-3.3-9.1-5.9-12.5c16.3,1.4,35.4,6.7,39.3,23.8c3.2,13.8-2.5,28-6.8,35.4
		c-2.9,4.8-12.4,18-22,22.4c-3.8,1.7-5.4,6.2-3.6,10c1.3,2.7,4,4.3,6.8,4.3c1.1,0,2.1-0.2,3.2-0.7c7.9-3.7,14.8-10.4,19.9-16.5
		c0.2,0,0.4,0.1,0.6,0.1c2.7,0.3,5.8,0.4,9.1,0.4c15.2,0.1,26.2,1.2,30,14.6c3.2,11.2,0.1,21-3,26.3c-1.6,2.1-10.2,13.4-21.3,22.6
		c-3.2,2.6-3.7,7.4-1,10.6c1.5,1.8,3.6,2.7,5.8,2.7c1.7,0,3.4-0.6,4.8-1.7c5.6-4.6,10.5-9.6,14.5-13.9c0.6,0.1,1.3,0.2,2,0.3
		c10.9,0.4,24.9,3.8,29.3,17.4C361.8,189.4,359,200.9,348.2,208.7z"/>
</g>
</svg>
